<?xml version="1.0" encoding="UTF-8"?>
<!-- Created with Inkscape (http://www.inkscape.org/) -->
<svg width="32" height="32" version="1.1" viewBox="0 0 30 30" xmlns="http://www.w3.org/2000/svg" xmlns:cc="http://creativecommons.org/ns#" xmlns:dc="http://purl.org/dc/elements/1.1/" xmlns:rdf="http://www.w3.org/1999/02/22-rdf-syntax-ns#" xmlns:xlink="http://www.w3.org/1999/xlink">
 <defs>
  <linearGradient id="linearGradient1351">
   <stop stop-color="#e1e1e1" offset="0"/>
   <stop stop-color="#fff" offset="1"/>
  </linearGradient>
  <linearGradient id="linearGradient3704" x1="12.601" x2="13.135" y1="1037.1" y2="1040.5" gradientTransform="matrix(1.8577 0 0 1.8833 1.7348 -930.27)" gradientUnits="userSpaceOnUse" xlink:href="#linearGradient1351"/>
  <linearGradient id="linearGradient3706" x1="3.793" x2="4.7239" y1="1037.3" y2="1043.3" gradientTransform="matrix(1.8577 0 0 1.8833 1.7348 -930.27)" gradientUnits="userSpaceOnUse" xlink:href="#linearGradient1351"/>
  <linearGradient id="linearGradient3708" x1="5.8348" x2="6.684" y1="1044.9" y2="1048.5" gradientTransform="matrix(1.8577 0 0 1.8833 1.7348 -930.27)" gradientUnits="userSpaceOnUse" xlink:href="#linearGradient1351"/>
  <linearGradient id="linearGradient3710" x1="12.148" x2="12.788" y1="1041.2" y2="1043.3" gradientTransform="matrix(1.8577 0 0 1.8833 2.2973 -930.27)" gradientUnits="userSpaceOnUse" xlink:href="#linearGradient1351"/>
  <linearGradient id="linearGradient3712" x1="10.827" x2="11.331" y1="1044.4" y2="1046.2" gradientTransform="matrix(1.8577 0 0 1.8833 1.7348 -930.08)" gradientUnits="userSpaceOnUse" xlink:href="#linearGradient1351"/>
  <linearGradient id="linearGradient3714" x1="9.9916" x2="10.305" y1="1046.7" y2="1048" gradientTransform="matrix(1.8577 0 0 1.8833 1.7348 -930.27)" gradientUnits="userSpaceOnUse" xlink:href="#linearGradient1351"/>
  <linearGradient id="linearGradient3716" x1="11.709" x2="11.862" y1="1048.5" y2="1049.8" gradientTransform="matrix(1.8577 0 0 1.8833 1.7348 -930.45)" gradientUnits="userSpaceOnUse" xlink:href="#linearGradient1351"/>
  <linearGradient id="linearGradient3718" x1="2.7083" x2="1.5909" y1="1047.1" y2="1050.4" gradientTransform="matrix(1.8577 0 0 1.8833 1.7348 -930.27)" gradientUnits="userSpaceOnUse" xlink:href="#linearGradient1351"/>
 </defs>
 <metadata>
  <rdf:RDF>
   <cc:Work rdf:about="">
    <dc:format>image/svg+xml</dc:format>
    <dc:type rdf:resource="http://purl.org/dc/dcmitype/StillImage"/>
    <dc:title/>
   </cc:Work>
  </rdf:RDF>
 </metadata>
 <g transform="translate(0 -1022.4)">
  <g fill="none" stroke="#000" stroke-linejoin="round">
   <g transform="matrix(.94276 0 0 .9623 -.30503 40.592)" opacity=".04" stroke-width="2.7862">
    <path d="m28.358 1026.6c0 1.681-1.4206 3.0434-3.1731 3.0434-1.7525 0-3.1731-1.3624-3.1731-3.0434 0-1.6809 1.4206-3.0437 3.1731-3.0437 1.7525 0 3.1731 1.3628 3.1731 3.0437z"/>
    <path d="m21.931 1036.7c-1.7876-13.909 1.1844-10.746-19.733-14.498 2.668 18.083 0.76556 15.095 19.733 14.498z"/>
    <path d="m22.012 1037.7c-3.4231 12.766-1.2413 7.6165-14.711 11.663 3.0178-12.838 3.4344-11.062 14.711-11.663z"/>
    <path d="m22.876 1036.2c1.1064-6.3037 3.2749-4.568 7.7771-7.321-1.5809 6.7793-0.82849 4.6614-7.7771 7.321z"/>
    <path d="m22.554 1040.3c1.0276-3.8455-0.27693-2.8291 7.1337-5.3578-3.061 4.8612-2.6415 4.344-7.1337 5.3578z"/>
    <path d="m22.87 1043.7c0.35492-3.9697 2.8288-1.7398 6.1789-5.3341-1.7888 4.5096-2.1618 4.8024-6.1789 5.3341z"/>
    <path d="m24.03 1047.4c-0.32296-2.7263 0.07836-2.5997 4.1823-4.1977-1.4533 5.7157-1.3213 3.458-4.1823 4.1977z"/>
    <path d="m8.4634 1041.4c-2.427 7.1816-1.6297 6.9822-6.2655 8.5499 1.7602-5.4556 1.1893-7.2493 6.2655-8.5499z"/>
   </g>
   <g transform="matrix(.94276 0 0 .9623 -.30503 40.592)" opacity=".06" stroke-width="1.8575">
    <path d="m28.358 1026.6c0 1.681-1.4206 3.0434-3.1731 3.0434-1.7525 0-3.1731-1.3624-3.1731-3.0434 0-1.6809 1.4206-3.0437 3.1731-3.0437 1.7525 0 3.1731 1.3628 3.1731 3.0437z"/>
    <path d="m21.931 1036.7c-1.7876-13.909 1.1844-10.746-19.733-14.498 2.668 18.083 0.76556 15.095 19.733 14.498z"/>
    <path d="m22.012 1037.7c-3.4231 12.766-1.2413 7.6165-14.711 11.663 3.0178-12.838 3.4344-11.062 14.711-11.663z"/>
    <path d="m22.876 1036.2c1.1064-6.3037 3.2749-4.568 7.7771-7.321-1.5809 6.7793-0.82849 4.6614-7.7771 7.321z"/>
    <path d="m22.554 1040.3c1.0276-3.8455-0.27693-2.8291 7.1337-5.3578-3.061 4.8612-2.6415 4.344-7.1337 5.3578z"/>
    <path d="m22.87 1043.7c0.35492-3.9697 2.8288-1.7398 6.1789-5.3341-1.7888 4.5096-2.1618 4.8024-6.1789 5.3341z"/>
    <path d="m24.03 1047.4c-0.32296-2.7263 0.07836-2.5997 4.1823-4.1977-1.4533 5.7157-1.3213 3.458-4.1823 4.1977z"/>
    <path d="m8.4634 1041.4c-2.427 7.1816-1.6297 6.9822-6.2655 8.5499 1.7602-5.4556 1.1893-7.2493 6.2655-8.5499z"/>
   </g>
   <g transform="matrix(.94276 0 0 .9623 -.30503 40.503)" opacity=".08" stroke-width="1.1145">
    <path d="m28.358 1026.6c0 1.681-1.4206 3.0434-3.1731 3.0434-1.7525 0-3.1731-1.3624-3.1731-3.0434 0-1.6809 1.4206-3.0437 3.1731-3.0437 1.7525 0 3.1731 1.3628 3.1731 3.0437z"/>
    <path d="m21.931 1036.7c-1.7876-13.909 1.1844-10.746-19.733-14.498 2.668 18.083 0.76556 15.095 19.733 14.498z"/>
    <path d="m22.012 1037.7c-3.4231 12.766-1.2413 7.6165-14.711 11.663 3.0178-12.838 3.4344-11.062 14.711-11.663z"/>
    <path d="m22.876 1036.2c1.1064-6.3037 3.2749-4.568 7.7771-7.321-1.5809 6.7793-0.82849 4.6614-7.7771 7.321z"/>
    <path d="m22.554 1040.3c1.0276-3.8455-0.27693-2.8291 7.1337-5.3578-3.061 4.8612-2.6415 4.344-7.1337 5.3578z"/>
    <path d="m22.87 1043.7c0.35492-3.9697 2.8288-1.7398 6.1789-5.3341-1.7888 4.5096-2.1618 4.8024-6.1789 5.3341z"/>
    <path d="m24.03 1047.4c-0.32296-2.7263 0.07836-2.5997 4.1823-4.1977-1.4533 5.7157-1.3213 3.458-4.1823 4.1977z"/>
    <path d="m8.4634 1041.4c-2.427 7.1816-1.6297 6.9822-6.2655 8.5499 1.7602-5.4556 1.1893-7.2493 6.2655-8.5499z"/>
   </g>
   <g transform="matrix(.94276 0 0 .9623 -.30529 40.415)" opacity=".06" stroke-width=".46436">
    <path d="m28.358 1026.6c0 1.681-1.4206 3.0434-3.1731 3.0434-1.7525 0-3.1731-1.3624-3.1731-3.0434 0-1.6809 1.4206-3.0437 3.1731-3.0437 1.7525 0 3.1731 1.3628 3.1731 3.0437z"/>
    <path d="m21.931 1036.7c-1.7876-13.909 1.1844-10.746-19.733-14.498 2.668 18.083 0.76556 15.095 19.733 14.498z"/>
    <path d="m22.012 1037.7c-3.4231 12.766-1.2413 7.6165-14.711 11.663 3.0178-12.838 3.4344-11.062 14.711-11.663z"/>
    <path d="m22.876 1036.2c1.1064-6.3037 3.2749-4.568 7.7771-7.321-1.5809 6.7793-0.82849 4.6614-7.7771 7.321z"/>
    <path d="m22.554 1040.3c1.0276-3.8455-0.27693-2.8291 7.1337-5.3578-3.061 4.8612-2.6415 4.344-7.1337 5.3578z"/>
    <path d="m22.87 1043.7c0.35492-3.9697 2.8288-1.7398 6.1789-5.3341-1.7888 4.5096-2.1618 4.8024-6.1789 5.3341z"/>
    <path d="m24.03 1047.4c-0.32296-2.7263 0.07836-2.5997 4.1823-4.1977-1.4533 5.7157-1.3213 3.458-4.1823 4.1977z"/>
    <path d="m8.4634 1041.4c-2.427 7.1816-1.6297 6.9822-6.2655 8.5499 1.7602-5.4556 1.1893-7.2493 6.2655-8.5499z"/>
   </g>
  </g>
  <g transform="matrix(.94276 0 0 .9623 -.30503 40.327)" opacity=".09">
   <path d="m28.358 1026.6c0 1.681-1.4206 3.0434-3.1731 3.0434-1.7525 0-3.1731-1.3624-3.1731-3.0434 0-1.6809 1.4206-3.0437 3.1731-3.0437 1.7525 0 3.1731 1.3628 3.1731 3.0437z"/>
   <path d="m21.931 1036.7c-1.7876-13.909 1.1844-10.746-19.733-14.498 2.668 18.083 0.76556 15.095 19.733 14.498z"/>
   <path d="m22.012 1037.7c-3.4231 12.766-1.2413 7.6165-14.711 11.663 3.0178-12.838 3.4344-11.062 14.711-11.663z"/>
   <path d="m22.876 1036.2c1.1064-6.3037 3.2749-4.568 7.7771-7.321-1.5809 6.7793-0.82849 4.6614-7.7771 7.321z"/>
   <path d="m22.554 1040.3c1.0276-3.8455-0.27693-2.8291 7.1337-5.3578-3.061 4.8612-2.6415 4.344-7.1337 5.3578z"/>
   <path d="m22.87 1043.7c0.35492-3.9697 2.8288-1.7398 6.1789-5.3341-1.7888 4.5096-2.1618 4.8024-6.1789 5.3341z"/>
   <path d="m24.03 1047.4c-0.32296-2.7263 0.07836-2.5997 4.1823-4.1977-1.4533 5.7157-1.3213 3.458-4.1823 4.1977z"/>
   <path d="m8.4634 1041.4c-2.427 7.1816-1.6297 6.9822-6.2655 8.5499 1.7602-5.4556 1.1893-7.2493 6.2655-8.5499z"/>
  </g>
  <g transform="matrix(.94276 0 0 .9623 -.30503 39.992)" stroke="#fafafa" stroke-width=".18575">
   <path d="m28.358 1026.6c0 1.681-1.4206 3.0434-3.1731 3.0434-1.7525 0-3.1731-1.3624-3.1731-3.0434 0-1.6809 1.4206-3.0437 3.1731-3.0437 1.7525 0 3.1731 1.3628 3.1731 3.0437z" fill="url(#linearGradient3704)"/>
   <path d="m21.931 1036.7c-1.7876-13.909 1.1844-10.746-19.733-14.498 2.668 18.083 0.76556 15.095 19.733 14.498z" fill="url(#linearGradient3706)"/>
   <path d="m22.012 1037.7c-3.4231 12.766-1.2413 7.6165-14.711 11.663 3.0178-12.838 3.4344-11.062 14.711-11.663z" fill="url(#linearGradient3708)"/>
   <path d="m22.876 1036.2c1.1064-6.3037 3.2749-4.568 7.7771-7.321-1.5809 6.7793-0.82849 4.6614-7.7771 7.321z" fill="url(#linearGradient3710)"/>
   <path d="m22.554 1040.3c1.0276-3.8455-0.27693-2.8291 7.1337-5.3578-3.061 4.8612-2.6415 4.344-7.1337 5.3578z" fill="url(#linearGradient3712)"/>
   <path d="m22.87 1043.7c0.35492-3.9697 2.8288-1.7398 6.1789-5.3341-1.7888 4.5096-2.1618 4.8024-6.1789 5.3341z" fill="url(#linearGradient3714)"/>
   <path d="m24.03 1047.4c-0.32296-2.7263 0.07836-2.5997 4.1823-4.1977-1.4533 5.7157-1.3213 3.458-4.1823 4.1977z" fill="url(#linearGradient3716)"/>
   <path d="m8.4634 1041.4c-2.427 7.1816-1.6297 6.9822-6.2655 8.5499 1.7602-5.4556 1.1893-7.2493 6.2655-8.5499z" fill="url(#linearGradient3718)"/>
  </g>
 </g>
</svg>
